 <svg data-v-2cb57da0="" version="1.0" xmlns="http://www.w3.org/2000/svg" xmlns:xlink="http://www.w3.org/1999/xlink"
        width="100%" height="100%" viewBox="0 0 340.000000 250.000000" preserveAspectRatio="xMidYMid meet"
        color-interpolation-filters="sRGB" style="margin: auto;">
        <rect data-v-2cb57da0="" x="0" y="0" width="100%" height="100%" fill="#edeae2" fill-opacity="0"
            class="background"></rect>
        <rect data-v-2cb57da0="" x="0" y="0" width="100%" height="100%" fill="url(#watermark)" fill-opacity="1"
            class="watermarklayer"></rect>
        <g data-v-2cb57da0="" fill="#02000b" class="basesvg"
            transform="translate(76.94000232219696,103.17499923706055)">
            <g data-gra="path-name" fill-rule="" class="tp-name" opacity="0.9904775776745958"
                transform="matrix(1,0,0,1,0,0)">
                <g transform="scale(1)">
                    <g>
                        <path
                            d="M31.03-42.71L46.79-42.71 44.09 0.29 30.73 0.88 30.85-21.8 24.81-3.52 19.66-3.52 15.03-19.86 14.97-0.88 1.44-0.47 2.02-40.96 17.08-41.54 23.06-22.15 31.03-42.71ZM48.63-40.43L64.22-41.25 62.17-1.35 49.8-0.7 48.63-40.43ZM102.95-14.82L102.95-14.82Q102.95-11.51 102.88-8.28 102.8-5.04 102.66-1.76L102.66-1.76 85.78-2.05Q86.66-7.24 87.3-12.41 87.95-17.58 87.95-22.85L87.95-22.85Q87.95-23.23 87.92-24.08 87.89-24.93 87.8-26 87.71-27.07 87.55-28.2 87.39-29.33 87.11-30.26 86.84-31.2 86.44-31.8 86.04-32.4 85.49-32.4L85.49-32.4Q84.49-32.4 83.8-31.82 83.12-31.23 82.66-30.31 82.21-29.38 81.94-28.24 81.68-27.1 81.55-25.96 81.42-24.81 81.37-23.8 81.33-22.79 81.33-22.15L81.33-22.15Q81.18-16.96 81.09-11.85 81.01-6.74 80.86-1.52L80.86-1.52 65.92-0.88Q66.5-11.22 67.05-21.45 67.59-31.67 67.91-42.01L67.91-42.01 81.74-42.71 81.62-38.03Q82.44-39.02 83.39-39.9 84.35-40.78 85.43-41.41 86.51-42.04 87.73-42.41 88.95-42.77 90.29-42.77L90.29-42.77Q92.78-42.77 94.66-41.95 96.53-41.13 97.88-39.73 99.23-38.32 100.14-36.4 101.04-34.48 101.6-32.31 102.16-30.15 102.45-27.79 102.74-25.43 102.85-23.14 102.95-20.86 102.95-18.72 102.95-16.58 102.95-14.82ZM105.41-40.43L121-41.25 118.95-1.35 106.58-0.7 105.41-40.43ZM124.1-42.25L151.11-42.25Q150.94-39.49 150.79-36.8 150.64-34.1 150.41-31.35L150.41-31.35 137.99-30.7 137.7-27.01 146.43-27.01 145.78-17.93 136.99-17.64 136.7-13.36 143.96-13.36 149.12-13.36Q148.95-10.14 148.75-6.96 148.56-3.78 148.42-0.59L148.42-0.59 123.16 0 124.1-42.25ZM173.73-41.54L187.56-39.9 176.13-21.21 186.45-4.51 174.2-0.7 168.34-12.07 162.13-0.06 149.47-4.63 160.25-21.62 150.41-38.32 163.83-41.54 168.63-30.94 173.73-41.54Z"
                            transform="translate(-1.440000057220459, 42.77000045776367)"></path>
                    </g> <!----> <!----> <!----> <!----> <!----> <!----> <!---->
                </g>
            </g> <!---->
        </g>
        <defs v-gra="od"></defs>
    </svg>
